#!OML:ASF I:\Actors\actors\Patient Classification 2\Patient 1\Session 1\actor1.ASF
:FULLY-SPECIFIED
:DEGREES
263
root -1.40766 17.685 5.21375 -4.66913 20.7118 -8.63103
lowerback 22.6367 2.70975 13.5292
upperback 5.55531 7.3303 7.56296
thorax -5.77851 3.4787 -1.26363
lowerneck -14.576 -11.8731 -9.53413
upperneck 30.2621 -16.075 5.41553
head 13.9903 -7.27585 1.01131
rclavicle 3.10104e-014 -1.74931e-014
rhumerus -43.4936 44.1352 -76.7935
rradius 65.8628
rwrist -49.0177
rhand 23.9774 -24.7702
rfingers 7.12502
rthumb 48.2206 -46.8794
lclavicle 3.10104e-014 -1.74931e-014
lhumerus -67.4717 -30.987 98.777
lradius 82.7977
lwrist 43.2814
lhand -14.349 -39.8602
lfingers 7.12502
lthumb 11.7926 -10.2122
rfemur 25.8988 -17.6917 22.5622
rtibia -23.7353
rfoot -4.86393 -14.9608
rtoes -4.17928
lfemur 22.701 -11.6991 -7.13304
ltibia -40.4923
lfoot 20.3449 9.20793
ltoes -19.0078
264
root -1.41774 17.6789 5.19576 -4.62826 21.4068 -8.63388
lowerback 23.086 2.93047 13.8563
upperback 5.43869 7.82203 7.81135
thorax -6.08505 3.68737 -1.32358
lowerneck -14.075 -12.2789 -10.0549
upperneck 29.9132 -16.6828 5.89083
head 13.9015 -7.55003 1.18584
rclavicle -4.92986e-014 6.67916e-014
rhumerus -43.7758 43.5359 -77.6047
rradius 66.2155
rwrist -49.9135
rhand 24.528 -24.9799
rfingers 7.12502
rthumb 48.7275 -46.846
lclavicle -4.92986e-014 6.67916e-014
lhumerus -67.5868 -30.2877 99.63
lradius 83.0927
lwrist 43.564
lhand -14.6582 -38.7693
lfingers 7.12502
lthumb 11.4944 -9.10441
rfemur 26.0676 -18.3347 22.5195
rtibia -24.2332
rfoot -4.62938 -15.1782
rtoes -4.47376
lfemur 22.4219 -12.1354 -7.14097
ltibia -40.7103
lfoot 20.6673 9.15849
ltoes -18.6223
265
root -1.42613 17.6721 5.17931 -4.58085 22.0605 -8.58593
lowerback 23.4148 3.02796 14.1414
upperback 5.40147 8.09896 7.91671
thorax -6.24465 3.80431 -1.45361
lowerneck -13.7498 -12.5301 -10.2661
upperneck 29.6188 -17.1277 6.32299
head 13.8244 -7.72245 1.31815
rclavicle 6.44062e-014 -6.36111e-015
rhumerus -43.7703 43.2698 -78.6311
rradius 66.4632
rwrist -50.5944
rhand 24.8938 -24.8063
rfingers 7.12502
rthumb 49.0636 -46.5072
lclavicle 6.44062e-014 -6.36111e-015
lhumerus -67.5467 -29.3625 100.018
lradius 83.2116
lwrist 43.6697
lhand -14.7425 -38.3601
lfingers 7.12502
lthumb 11.4131 -8.6907
rfemur 26.274 -18.9391 22.406
rtibia -24.7622
rfoot -4.36238 -15.387
rtoes -4.69812
lfemur 22.1903 -12.5676 -7.21378
ltibia -40.9346
lfoot 20.9675 9.06204
ltoes -18.6321
266
root -1.43637 17.6639 5.161 -4.56811 22.845 -8.542
lowerback 23.7309 3.00078 14.3916
upperback 5.38025 8.20149 7.97901
thorax -6.39592 3.83909 -1.56834
lowerneck -13.5204 -12.6998 -10.3536
upperneck 29.3572 -17.4775 6.7438
head 13.76 -7.84033 1.43968
rclavicle -4.29375e-014 -3.18055e-014
rhumerus -43.5826 43.0997 -79.7001
rradius 66.7181
rwrist -51.1738
rhand 25.687 -24.492
rfingers 7.12502
rthumb 49.7911 -45.8237
lclavicle -4.29375e-014 -3.18055e-014
lhumerus -67.5115 -28.3653 100.164
lradius 83.237
lwrist 43.6119
lhand -14.611 -38.5926
lfingers 7.12502
lthumb 11.5399 -8.93031
rfemur 26.5302 -19.6139 22.2873
rtibia -25.3163
rfoot -4.13659 -15.6625
rtoes -4.83866
lfemur 21.9453 -13.0471 -7.28368
ltibia -41.164
lfoot 21.2972 8.93597
ltoes -18.4845
267
root -1.44872 17.6554 5.14296 -4.51868 23.6475 -8.54433
lowerback 23.8944 2.97963 14.6782
upperback 5.37632 8.28973 8.0496
thorax -6.44522 3.87477 -1.67597
lowerneck -13.2413 -12.8831 -10.3973
upperneck 29.0003 -17.8156 7.0591
head 13.6278 -7.96877 1.52064
rclavicle -1.11319e-013 1.90833e-014
rhumerus -43.343 42.9402 -80.6968
rradius 67.0503
rwrist -51.8621
rhand 26.6392 -23.731
rfingers 7.12502
rthumb 50.6617 -44.5992
lclavicle -1.11319e-013 1.90833e-014
lhumerus -67.5381 -27.5486 100.319
lradius 83.3395
lwrist 43.5564
lhand -14.4585 -38.8566
lfingers 7.12502
lthumb 11.687 -9.20257
rfemur 26.7243 -20.2244 22.2772
rtibia -25.8826
rfoot -3.92866 -16.0122
rtoes -5.16397
lfemur 21.6307 -13.426 -7.27617
ltibia -41.3964
lfoot 21.6264 8.80902
ltoes -18.125
268
root -1.45632 17.6465 5.12941 -4.39312 24.1615 -8.50601
lowerback 23.9336 3.08544 14.9222
upperback 5.41238 8.49578 8.10909
thorax -6.37374 3.97697 -1.78988
lowerneck -12.9294 -13.0712 -10.4695
upperneck 28.6261 -18.1511 7.37522
head 13.4873 -8.10204 1.60817
rclavicle 8.42847e-014 6.99722e-014
rhumerus -43.117 42.9082 -81.6749
rradius 67.4273
rwrist -52.322
rhand 26.798 -23.0985
rfingers 7.12502
rthumb 50.8066 -43.8871
lclavicle 8.42847e-014 6.99722e-014
lhumerus -67.6563 -26.9062 100.545
lradius 83.5417
lwrist 43.5831
lhand -14.2279 -39.2917
lfingers 7.12502
lthumb 11.9094 -9.65041
rfemur 26.8455 -20.5614 22.2691
rtibia -26.4561
rfoot -3.64911 -16.3237
rtoes -5.48155
lfemur 21.3776 -13.6429 -7.30767
ltibia -41.6371
lfoot 21.9628 8.68935
ltoes -18.1077
269
root -1.46046 17.6359 5.11745 -4.32646 24.6313 -8.4035
lowerback 24.0674 3.17691 15.1032
upperback 5.45002 8.68646 8.15542
thorax -6.35757 4.06841 -1.88939
lowerneck -12.6037 -13.221 -10.5648
upperneck 28.322 -18.441 7.72166
head 13.3779 -8.21329 1.71921
rclavicle -5.00937e-014 3.81667e-014
rhumerus -42.9161 43.1187 -82.7174
rradius 67.7901
rwrist -52.3201
rhand 26.4141 -22.7176
rfingers 7.12502
rthumb 50.4562 -43.6975
lclavicle -5.00937e-014 3.81667e-014
lhumerus -67.8361 -26.259 100.788
lradius 83.7301
lwrist 43.7187
lhand -14.048 -39.6905
lfingers 7.12502
lthumb 12.0828 -10.0594
rfemur 27.088 -20.9246 22.1329
rtibia -27.0464
rfoot -3.28456 -16.5666
rtoes -5.70397
lfemur 21.246 -13.9758 -7.44242
ltibia -41.8749
lfoot 22.3007 8.59957
ltoes -18.3004
270
root -1.46745 17.6232 5.1027 -4.32446 25.2715 -8.38465
lowerback 24.2557 3.16036 15.3604
upperback 5.44217 8.7772 8.19241
thorax -6.41976 4.1035 -2.02093
lowerneck -12.3466 -13.335 -10.5276
upperneck 28.1076 -18.6662 7.91945
head 13.2806 -8.29705 1.76335
rclavicle 2.94201e-014 -9.54166e-015
rhumerus -42.4542 43.0995 -83.4792
rradius 68.0582
rwrist -53.4666
rhand 27.0316 -22.3707
rfingers 7.12502
rthumb 51.0196 -43.0411
lclavicle 2.94201e-014 -9.54166e-015
lhumerus -68.0247 -25.6314 100.96
lradius 83.7201
lwrist 43.5754
lhand -14.0554 -39.8509
lfingers 7.12502
lthumb 12.0757 -10.2193
rfemur 27.3689 -21.437 22.0658
rtibia -27.6395
rfoot -2.96231 -16.8563
rtoes -5.89988
lfemur 21.0707 -14.4376 -7.4861
ltibia -42.1018
lfoot 22.6234 8.48474
ltoes -18.4761
271
root -1.47686 17.6097 5.08706 -4.28778 26.0076 -8.34662
lowerback 24.4 3.14055 15.6359
upperback 5.41785 8.86037 8.20453
thorax -6.47104 4.13482 -2.18392
lowerneck -12.1267 -13.4822 -10.5423
upperneck 27.8901 -18.9398 8.17037
head 13.2095 -8.39953 1.82209
rclavicle 1.59028e-014 5.08889e-014
rhumerus -42.1536 43.0855 -84.3895
rradius 68.4339
rwrist -53.9267
rhand 26.9058 -21.8471
rfingers 7.12502
rthumb 50.9048 -42.5815
lclavicle 1.59028e-014 5.08889e-014
lhumerus -68.1765 -25.1088 101.096
lradius 83.5483
lwrist 43.1033
lhand -13.9382 -40.3908
lfingers 7.12502
lthumb 12.1887 -10.7659
rfemur 27.6239 -21.9863 22.0028
rtibia -28.2442
rfoot -2.70606 -17.1962
rtoes -6.19306
lfemur 20.8255 -14.9075 -7.52979
ltibia -42.3272
lfoot 22.934 8.32546
ltoes -18.4843
272
root -1.48439 17.5957 5.07347 -4.31428 26.8237 -8.24895
lowerback 24.5285 3.096 15.8212
upperback 5.46595 8.88231 8.26591
thorax -6.4621 4.14741 -2.2265
lowerneck -11.938 -13.6483 -10.7164
upperneck 27.6003 -19.2225 8.51604
head 13.1487 -8.51257 1.93364
rclavicle 2.3218e-013 1.59028e-014
rhumerus -41.6518 43.1234 -85.0125
rradius 68.9491
rwrist -54.4818
rhand 26.4633 -22.422
rfingers 7.12502
rthumb 50.5011 -43.3775
lclavicle 2.3218e-013 1.59028e-014
lhumerus -68.2457 -24.4994 101.303
lradius 83.5706
lwrist 43.1352
lhand -13.7726 -40.4212
lfingers 7.12502
lthumb 12.3484 -10.8059
rfemur 27.9981 -22.6416 21.8179
rtibia -28.8246
rfoot -2.44126 -17.4709
rtoes -6.5746
lfemur 20.6633 -15.4315 -7.66525
ltibia -42.5505
lfoot 23.1975 8.1709
ltoes -18.2548
273
root -1.49583 17.5838 5.05839 -4.13662 27.2498 -8.24049
lowerback 24.4956 3.21054 15.7674
upperback 5.51053 9.02329 8.43237
thorax -6.41486 4.2237 -2.047
lowerneck -11.8719 -13.755 -10.8591
upperneck 27.4136 -19.3785 8.69935
head 13.1175 -8.57915 1.996
rclavicle -6.12257e-014 -1.01778e-013
rhumerus -41.0545 43.3698 -85.4384
rradius 69.5232
rwrist -55.337
rhand 26.2682 -23.0943
rfingers 7.12502
rthumb 50.3229 -44.1458
lclavicle -6.12257e-014 -1.01778e-013
lhumerus -68.3863 -23.7605 101.625
lradius 83.8679
lwrist 43.7927
lhand -13.9496 -39.6254
lfingers 7.12502
lthumb 12.1777 -9.9999
rfemur 28.0244 -22.9592 21.8876
rtibia -29.3851
rfoot -2.13941 -17.7025
rtoes -6.75141
lfemur 20.3359 -15.5679 -7.61542
ltibia -42.7759
lfoot 23.4763 8.07597
ltoes -18.0669
274
root -1.50542 17.5707 5.0469 -4.11395 27.9306 -8.26455
lowerback 24.5469 3.19051 15.6803
upperback 5.50599 9.01779 8.63065
thorax -6.49876 4.22008 -1.79036
lowerneck -11.7866 -13.8286 -10.885
upperneck 27.3349 -19.4741 8.71223
head 13.0838 -8.62547 1.99223
rclavicle -1.56642e-013 -1.90833e-014
rhumerus -40.6203 43.7579 -85.9581
rradius 70.1326
rwrist -56.1852
rhand 26.1951 -23.1003
rfingers 7.12502
rthumb 50.2561 -44.1875
lclavicle -1.56642e-013 -1.90833e-014
lhumerus -68.6934 -22.9299 101.902
lradius 84.1283
lwrist 44.1913
lhand -14.1239 -39.2209
lfingers 7.12502
lthumb 12.0096 -9.58545
rfemur 28.2441 -23.4777 21.8943
rtibia -29.912
rfoot -1.97856 -17.9406
rtoes -6.78185
lfemur 20.0951 -15.9226 -7.58405
ltibia -42.9873
lfoot 23.7894 7.96188
ltoes -17.8173
275
root -1.51027 17.56 5.03964 -4.00875 28.5417 -8.22504
lowerback 24.4996 3.20496 15.8025
upperback 5.51468 9.06353 8.67002
thorax -6.44672 4.24654 -1.81654
lowerneck -11.6738 -13.9874 -10.9047
upperneck 27.1558 -19.735 8.88662
head 13.0437 -8.72883 2.01649
rclavicle -5.88403e-014 8.26944e-014
rhumerus -40.0101 43.8673 -86.4004
rradius 70.7717
rwrist -56.971
rhand 26.2987 -22.9307
rfingers 7.12502
rthumb 50.3508 -43.9673
lclavicle -5.88403e-014 8.26944e-014
lhumerus -68.8885 -22.3151 101.97
lradius 84.2186
lwrist 44.1924
lhand -13.9528 -39.1256
lfingers 7.12502
lthumb 12.1746 -9.49989
rfemur 28.4133 -23.9858 21.8379
rtibia -30.4396
rfoot -1.73241 -18.1252
rtoes -6.85967
lfemur 19.834 -16.2359 -7.61375
ltibia -43.1879
lfoot 24.0212 7.88972
ltoes -17.4868
276
root -1.51521 17.5504 5.03121 -3.80242 29.025 -8.15331
lowerback 24.3688 3.26865 15.7982
upperback 5.55088 9.12064 8.74139
thorax -6.3447 4.28582 -1.73687
lowerneck -11.5826 -14.1177 -10.974
upperneck 26.9522 -19.9382 9.05851
head 12.9974 -8.81307 2.05632
rclavicle 3.26007e-014 -3.49861e-014
rhumerus -39.2508 44 -86.6362
rradius 71.536
rwrist -57.9421
rhand 26.5508 -23.1202
rfingers 7.12502
rthumb 50.581 -44.0325
lclavicle 3.26007e-014 -3.49861e-014
lhumerus -68.9471 -21.5417 102.033
lradius 84.2227
lwrist 44.0869
lhand -13.7432 -39.0553
lfingers 7.12502
lthumb 12.3767 -9.44168
rfemur 28.4568 -24.4005 21.8039
rtibia -30.9588
rfoot -1.40808 -18.2625
rtoes -6.98488
lfemur 19.5038 -16.404 -7.64394
ltibia -43.3745
lfoot 24.2423 7.75836
ltoes -17.3835
